<?xml version="1.0" standalone="no"?>
<!DOCTYPE svg PUBLIC "-//W3C//DTD SVG 20010904//EN"
 "http://www.w3.org/TR/2001/REC-SVG-20010904/DTD/svg10.dtd">
<svg version="1.0" xmlns="http://www.w3.org/2000/svg"
 width="400.000000pt" height="160.000000pt" viewBox="0 0 400.000000 160.000000"
 preserveAspectRatio="xMidYMid meet">

<g transform="translate(0.000000,160.000000) scale(0.100000,-0.100000)"
fill="#000000" stroke="none">
<path d="M350 1373 c0 -4 34 -91 76 -193 93 -227 184 -450 259 -635 31 -77 64
-158 74 -180 10 -22 38 -91 62 -152 24 -62 47 -113 51 -113 4 0 10 10 14 23 4
12 63 159 132 327 68 168 145 355 169 415 55 136 125 299 165 385 17 36 37 80
44 98 l14 32 -53 0 -53 0 -11 -83 c-6 -46 -29 -137 -51 -203 -40 -120 -277
-712 -291 -727 -4 -4 -15 9 -23 30 -9 21 -31 76 -51 123 -19 47 -52 128 -72
180 -20 52 -41 104 -45 115 -5 11 -58 142 -118 290 l-109 270 -92 3 c-50 1
-91 -1 -91 -5z"/>
<path d="M1684 1308 c-3 -5 -10 -6 -15 -3 -5 4 -10 -9 -11 -27 -5 -82 -3 -106
6 -101 5 4 7 -1 3 -10 -3 -9 -2 -19 4 -22 6 -4 8 14 4 50 -3 32 -1 54 4 51 5
-4 7 3 4 14 -5 19 0 20 78 22 46 1 65 3 42 5 -60 6 -54 21 10 26 28 2 12 3
-36 3 -49 0 -91 -4 -93 -8z"/>
<path d="M1642 1089 c-1 -30 -5 -80 -9 -111 -6 -39 -6 -59 1 -62 8 -3 7 -7 0
-13 -6 -4 -14 -39 -18 -78 -4 -38 -9 -89 -13 -112 -5 -40 -4 -43 18 -42 17 1
19 3 7 6 -10 2 -18 9 -18 15 0 6 10 8 23 4 17 -4 30 1 46 17 11 13 18 27 14
32 -5 4 0 5 10 2 11 -4 16 -3 12 3 -11 17 -37 11 -42 -10 -3 -11 -10 -20 -15
-20 -5 0 -6 -6 -2 -12 5 -9 4 -10 -3 -3 -13 13 -26 108 -14 100 5 -3 8 11 7
30 -2 20 0 55 5 79 15 81 17 194 4 212 -10 15 -12 9 -13 -37z"/>
<path d="M1810 805 c-7 -9 -8 -15 -2 -15 5 0 12 7 16 15 3 8 4 15 2 15 -2 0
-9 -7 -16 -15z"/>
<path d="M1735 784 c-14 -10 -14 -12 0 -17 8 -4 14 -3 14 1 -3 18 2 26 10 14
6 -11 10 -10 19 0 8 11 7 14 -8 14 -10 0 -26 -6 -35 -12z"/>
<path d="M1560 388 c1 -34 63 -142 88 -153 12 -5 22 -16 22 -23 0 -8 9 -16 20
-19 11 -3 20 -9 20 -14 0 -5 8 -9 18 -9 13 0 14 2 3 9 -7 5 -9 11 -5 13 5 3 4
3 -3 2 -7 -2 -15 1 -18 7 -4 5 -11 6 -17 3 -7 -5 -9 -1 -5 9 3 10 2 17 -4 17
-6 0 -7 5 -3 12 5 8 2 9 -10 5 -11 -4 -16 -2 -14 6 3 17 -12 57 -21 57 -4 0
-14 19 -21 43 -19 57 -50 79 -50 35z"/>
<path d="M1765 170 c-4 -6 2 -10 12 -10 15 0 16 -2 3 -10 -12 -8 -11 -10 7
-10 32 0 36 15 8 28 -15 7 -26 8 -30 2z"/>
<path d="M1828 123 c7 -3 16 -2 19 1 4 3 -2 6 -13 5 -11 0 -14 -3 -6 -6z"/>
</g>
</svg>
