<?xml version="1.0" standalone="no"?>
<!DOCTYPE svg PUBLIC "-//W3C//DTD SVG 20010904//EN"
 "http://www.w3.org/TR/2001/REC-SVG-20010904/DTD/svg10.dtd">
<svg version="1.0" xmlns="http://www.w3.org/2000/svg"
 width="400.000000pt" height="105.000000pt" viewBox="0 0 400.000000 105.000000"
 preserveAspectRatio="xMidYMid meet">

<g transform="translate(0.000000,105.000000) scale(0.100000,-0.100000)"
fill="#000000" stroke="none">
<path d="M200 826 l30 -45 0 -173 c-1 -164 -11 -335 -26 -404 -6 -30 -4 -32
30 -36 29 -3 35 -1 31 12 -14 49 -25 210 -25 384 0 197 0 200 19 181 18 -19
92 -114 348 -448 58 -75 107 -136 108 -135 2 2 6 136 10 298 4 162 11 317 16
344 12 67 13 66 -22 66 -30 0 -31 -1 -25 -32 4 -18 9 -125 12 -238 6 -205 6
-205 -14 -185 -19 19 -112 141 -270 353 l-76 102 -88 0 -89 0 31 -44z"/>
<path d="M1129 841 c-94 -20 -182 -90 -232 -186 -29 -55 -32 -68 -32 -155 0
-85 3 -101 29 -153 53 -103 142 -168 259 -187 163 -26 310 55 378 206 35 76
33 200 -4 279 -29 61 -93 138 -109 129 -4 -3 -8 0 -8 6 0 6 -25 22 -55 36 -59
27 -163 39 -226 25z m203 -51 c54 -20 132 -86 143 -121 4 -11 10 -17 15 -14 4
3 14 -3 21 -13 13 -15 12 -16 -3 -3 -22 17 -22 13 -2 -35 23 -55 15 -184 -15
-242 -32 -62 -82 -114 -138 -142 -42 -22 -61 -25 -148 -25 -91 0 -104 2 -147
27 -104 62 -158 159 -158 284 0 136 74 243 199 289 56 21 171 18 233 -5z"/>
<path d="M1710 505 l-1 -335 96 0 c57 0 95 4 95 10 0 6 14 10 30 10 17 0 30
-4 30 -10 0 -5 10 -9 23 -9 17 1 18 2 4 6 -9 2 -15 9 -12 14 4 5 -41 9 -109 9
l-115 0 -3 303 -3 302 113 0 c63 0 116 3 119 8 2 4 -2 7 -9 8 -7 1 -2 5 12 9
15 5 -33 8 -122 9 l-147 1 -1 -335z"/>
<path d="M2040 206 c0 -2 9 -6 20 -9 11 -3 18 -1 14 4 -5 9 -34 13 -34 5z"/>
</g>
</svg>
